<?xml version="1.0" encoding="UTF-8" standalone="no"?>
<!-- Created with Inkscape (http://www.inkscape.org/) -->
<svg id="svg2" xmlns:rdf="http://www.w3.org/1999/02/22-rdf-syntax-ns#" xmlns="http://www.w3.org/2000/svg" xml:space="preserve" height="558.65" width="1149.6" version="1.1" xmlns:cc="http://creativecommons.org/ns#" xmlns:xlink="http://www.w3.org/1999/xlink" xmlns:dc="http://purl.org/dc/elements/1.1/"><metadata id="metadata8"><rdf:RDF><cc:Work rdf:about=""><dc:format>image/svg+xml</dc:format><dc:type rdf:resource="http://purl.org/dc/dcmitype/StillImage"/><dc:title/></cc:Work></rdf:RDF></metadata><defs id="defs6"><clipPath id="clipPath36" clipPathUnits="userSpaceOnUse"><path id="path38" d="m0,1080,1920,0v-1080h-1920v1080z"/></clipPath><clipPath id="clipPath104" clipPathUnits="userSpaceOnUse"><path id="path106" d="m0,1080,1920,0v-1080h-1920v1080z"/></clipPath><linearGradient id="linearGradient3867" y2="1741.4" gradientUnits="userSpaceOnUse" x2="2412" gradientTransform="matrix(1920,0,0,-1920,1.0000006,541.37903)" y1="1741.4" x1="4.9744"><stop id="stop26" stop-color="#c81777" offset="0"/><stop id="stop28" stop-color="#008fc9" offset="1"/></linearGradient></defs><g id="g10" transform="matrix(1.25,0,0,-1.25,-580.05801,935.44218)"><g id="g32" transform="matrix(2.2704279,0,0,2.2704279,-1255.7412,-701.13738)"><g id="g34" clip-path="url(#clipPath36)"><g id="g40" transform="translate(891.1258,500.2961)"><path id="path42" fill-rule="nonzero" fill="#FFF" d="m0,0c0-0.041,0.011-0.078,0.012-0.119v0.238c-0.001-0.041-0.012-0.078-0.012-0.119"/></g><g id="g44" transform="translate(951.7636,637.5681)"><path id="path46" fill-rule="nonzero" fill="#FFF" d="m0,0-43.079,0c-3.816,0-6.905-3.063-6.97-6.863-0.001-0.041-0.012-0.078-0.012-0.119s0.011-0.078,0.012-0.119v-131.81-0.238c0.065-3.8,3.154-6.863,6.97-6.863h43.079c40.923,0,73.577,32.511,73.577,72.864,0.571,40.777-31.941,73.146-73.577,73.146"/></g><g id="g48" transform="translate(757.7459,491.5262)"><path id="path50" fill-rule="nonzero" fill="#FFF" d="m0,0c0.093,0,0.18,0.024,0.273,0.027h-0.546c0.093-0.003,0.18-0.027,0.273-0.027"/></g><g id="g52" transform="translate(870.6502,491.5331)"><path id="path54" fill-rule="nonzero" fill="#FFF" d="m0,0c0.07,0,0.135,0.019,0.205,0.021h-0.41c0.07-0.002,0.135-0.021,0.205-0.021"/></g><g id="g56" transform="translate(876.787,501.7794)"><path id="path58" fill-rule="nonzero" fill="#FFF" d="M0,0c0.166-0.397,0.331-0.794,0.497-1.191-0.13,0.416-0.295,0.812-0.497,1.191"/></g><g id="g60" transform="translate(890.7914,500.5884)"><path id="path62" fill-rule="nonzero" fill="#FFF" d="m0,0c-0.166,0.397-0.331,0.794-0.497,1.191-4.037,9.655-8.235,19.39-12.444,29.13l-30.657,69.014c-4.341,10.045-13.049,30.685-13.163,30.961-1.142,2.301-3.491,3.898-6.235,3.898-2.434,0-4.573-1.25-5.822-3.139-0.005-0.006-0.009-0.013-0.013-0.019-0.355-0.541-45.816-104.62-56.805-129.78-0.173-0.398-0.34-0.78-0.496-1.137-0.232-0.695-0.388-1.426-0.388-2.199,0-3.763,2.983-6.808,6.71-6.955h0.545,112.43,0.409c3.759,0.111,6.778,3.176,6.778,6.962,0.012,0.723-0.131,1.41-0.337,2.069"/></g><g id="g64" transform="translate(1047.4435,491.9937)"><path id="path66" fill-rule="nonzero" fill="#FFF" d="m0,0-1.668,0c0.277-0.033,0.548-0.084,0.834-0.084s0.557,0.051,0.834,0.084"/></g><g id="g68" transform="translate(1039.6276,498.8917)"><path id="path70" fill-rule="nonzero" fill="#FFF" d="m0,0c0-0.148,0.035-0.287,0.044-0.433v0.866c-0.009-0.146-0.044-0.285-0.044-0.433"/></g><g id="g72" transform="translate(1130.0967,491.5837)"><path id="path74" fill-rule="nonzero" fill="#FFF" d="m0,0-0.595,0c0.101-0.004,0.196-0.03,0.298-0.03,0.101,0,0.196,0.026,0.297,0.03"/></g><g id="g76" transform="translate(1135.9871,501.7059)"><path id="path78" fill-rule="nonzero" fill="#FFF" d="m0,0c-0.335,0.653-83.802,118.03-83.802,118.03l-0.736,1.037c-1.281,1.496-3.16,2.464-5.283,2.464-3.799,0-6.874-3.038-6.965-6.814-0.002-0.057-0.017-0.11-0.017-0.168s0.015-0.111,0.017-0.168v-117.17-0.867c0.21-3.368,2.79-6.065,6.104-6.464h1.668,82.529,0.595c3.715,0.159,6.684,3.198,6.684,6.952,0,1.147-0.303,2.214-0.794,3.169"/></g><g id="g80" transform="translate(1065.7234,628.3)"><path id="path82" fill-rule="nonzero" fill="#FFF" d="m0,0c0.335-0.653,83.802-118.03,83.802-118.03l0.736-1.037c1.281-1.496,3.16-2.464,5.283-2.464,3.799,0,6.874,3.037,6.965,6.814,0.002,0.057,0.017,0.11,0.017,0.168s-0.015,0.111-0.017,0.168v117.17,0.867c-0.21,3.368-2.79,6.065-6.104,6.464h-1.668-82.529-0.595c-3.715-0.158-6.684-3.197-6.684-6.951,0-1.148,0.303-2.215,0.794-3.17"/></g><g id="g84" transform="translate(1047.5203,468.1897)"><path id="path86" fill-rule="nonzero" fill="#FFF" d="m0,0c-2.546,0-4.629-1.236-5.323-3.704h10.259c-0.309,2.468-2.237,3.704-4.936,3.704"/></g><g id="g88" transform="translate(979.0762,467.8418)"><path id="path90" fill-rule="nonzero" fill="#FFF" d="m0,0c-2.969,0-5.515-2.237-5.515-5.554,0-3.432,2.546-5.591,5.515-5.591,3.008,0,5.399,2.276,5.399,5.591,0,3.434-2.391,5.554-5.399,5.554"/></g><g id="g92" transform="translate(1056.9668,460.5913)"><path id="path94" fill-rule="nonzero" fill="#FFF" d="m0,0-14.847,0c0.309-2.351,2.353-4.048,5.671-4.048,1.733,0,4.009,0.655,5.089,1.774l3.008-2.969c-2.005-2.083-5.283-3.086-8.175-3.086-6.557,0-10.451,4.05-10.451,10.142,0,5.785,3.933,9.95,10.103,9.95,6.362,0,10.335-3.933,9.602-11.763m-28.573-8.059c-4.125-0.154-6.825,2.198-6.825,6.942v8.214h-3.548v4.048h3.548v4.897l4.705,0.501v-5.398h5.245v-4.048h-5.284v-8.214c0-1.814,1.003-2.7,2.468-2.7,0.733,0,1.582,0.232,2.276,0.577l1.31-4.009c-1.349-0.54-2.468-0.771-3.895-0.81m-25.912-7.713-5.167,0,3.548,8.253-7.598,18.703,5.476,0,2.894-8.215,1.811-5.359,1.966,5.245,3.471,8.329,5.206,0-11.607-26.956zm-23.097,7.521c-2.314,0-4.665,0.771-6.131,3.045l-0.309-2.622h-4.396v26.956h4.705v-10.529c1.118,1.967,4.242,3.047,6.246,3.047,5.554,0,9.68-3.393,9.68-9.949,0-6.246-4.204-9.948-9.795-9.948m-24.994-10.762,118.44,0,0,45.293-118.44,0,0-45.293z"/></g></g></g><rect id="rect3091" stroke-linejoin="miter" fill-rule="evenodd" transform="matrix(0.8,0,0,-0.8,0,1080)" height="520.07" width="2406" stroke="#000" stroke-linecap="butt" y="1481.4" x="5.4744" stroke-width="1px" fill="url(#linearGradient3867)"/><text id="text96" y="187.89201" x="317.24173" transform="scale(1,-1)"><tspan id="tspan98" style="writing-mode:lr-tb;" font-weight="bold" fill-rule="nonzero" font-size="16.66990089px" font-stretch="normal" font-variant="normal" y="187.89201" x="317.24173 321.10916 330.9444 337.5957 347.31424 354.54898 364.73428 372.68582 379.33713 389.32239 399.50769 415.42746 425.61276 435.91476 445.75 456.16867 465.52051 472.17178 481.89035 485.92447 493.87601 503.44452" font-family="Nexa Bold" fill="#ffffff">interactua@adnbyte.com</tspan></text>
<g id="g100" transform="translate(-619.69926,-523.35026)"><g id="g102" clip-path="url(#clipPath104)"><g id="g108" transform="translate(856.9271,355.1574)"><path id="path110" fill-rule="nonzero" fill="#FFF" d="m0,0,3.083-1.48c0.056-0.025,0.141-0.025,0.21,0,0.071,0.025,0.121,0.08,0.146,0.155l4.347,13.835c0.021,0.105,0,0.2-0.085,0.271-0.069,0.072-0.175,0.08-0.27,0.047l-16.597-7.715c-0.085-0.042-0.146-0.13-0.146-0.234,0-0.037,0.013-0.071,0.028-0.104l2.465-1.276,1.85-0.898c0.086-0.037,0.192-0.025,0.272,0.023,0,0,7.011,5.38,7.357,5.118s-5.603-5.825-5.603-5.825c-0.054-0.051-0.079-0.123-0.069-0.208l0.017-0.229,2.975-1.504,0.02,0.024z"/></g><g id="g112" transform="translate(853.5692,356.0117)"><path id="path114" fill-rule="nonzero" fill="#FFF" d="m0,0,0.328-4.407c0.01-0.098,0.08-0.191,0.176-0.228,0.035,0,0.061-0.013,0.086-0.013,0.07,0,0.141,0.033,0.191,0.093l2.473,2.869-3.254,1.686z"/></g></g></g></g></svg>
